<svg t="1587353958904" class="icon" viewBox="0 0 1024 1024" version="1.1" xmlns="http://www.w3.org/2000/svg" p-id="5312" width="147" height="147">
    <path d="M0 0h1024v1024H0V0m114.2784 32.6656C50.8416 64.1024 9.7792 134.0416 10.3424 204.4928c-0.1536 206.5408-0.1024 413.1328-0.0512 619.7248-0.1536 46.1824 16.4864 92.16 46.7968 127.0784 39.0656 47.2576 102.144 71.68 162.8672 67.7376 186.112 0.256 372.2752-0.1024 558.3872 0.1024 44.9536 1.28 91.8528-0.3072 132.9664-20.736 54.1696-26.0096 95.5904-79.5648 104.2944-139.264-131.1232-55.1936-261.2224-112.9984-390.912-171.4688-49.6128 58.5728-106.496 115.1488-178.9952 144.128-79.2064 31.6416-170.3936 35.4816-250.5216 4.9664-50.5856-21.8624-95.5904-64.6144-107.4688-119.9616-11.4176-55.9104 5.7344-117.2992 45.2608-158.6176 33.3312-34.8672 81.3568-49.408 127.8976-55.7568 35.7888-6.0416 71.8848 0.3072 107.776 1.9456 76.2368 6.144 148.3264 33.536 220.5184 56.832l3.7376-1.9968c23.6544-41.472 40.0896-86.8864 52.736-132.7616-122.9824 0.7168-246.016-0.2048-369.0496 0.4608-7.168-0.9728-18.8416 3.2256-21.6064-6.5024-0.9216-10.8544-0.3584-21.8112-0.2048-32.6656 64.7168-0.6144 129.4848-0.512 194.2528-0.0512 0.6656-23.1936 0.1024-46.3872 0.5632-69.5808-79.36-1.28-158.72 0.9728-238.0288-1.1264 0-14.2848 0-28.5696 1.5872-42.752 78.2848 0.3072 156.7744 1.6896 235.008-0.6656-0.6144-32.9728-0.8192-65.9968-0.1536-98.9696-0.3072-11.6224 12.3904-19.2 23.04-18.0736 30.464 0.256 60.9792-0.8704 91.4432 0.8192-0.2048 39.168-2.4064 78.5408 1.024 117.6064 82.4832-0.9728 165.0176 0.768 247.5008-0.9216 7.7312 13.1584 3.7376 28.8256 4.096 43.2128-83.5072 1.6384-167.0144-0.512-250.5216 1.0752 0.5632 23.04 0.256 46.1312 0.4096 69.1712 68.7616-0.2048 137.5744-0.1024 206.3872-0.0512-17.7664 72.8576-45.4656 143.5136-83.8656 208.0256 14.848 7.424 31.0272 11.5712 46.7968 16.64 94.464 30.976 189.3376 60.7232 284.416 89.856 1.28-164.0448 0.0512-328.0896 0.4096-492.1856 1.1776-58.8288-24.7808-117.6064-70.3488-155.0336-35.6352-30.4128-82.9952-45.0048-129.4848-44.4416C616.2432 10.24 413.184 10.24 210.1248 10.2912c-33.1264-0.3072-66.6112 6.3488-95.8464 22.3744M126.3104 655.36c-9.7792 52.0704 27.7504 103.0144 75.4176 120.7296 56.5248 21.0432 120.9856 20.0192 176.8448-2.7648 63.2832-27.136 116.48-73.7792 157.44-128.5632-93.9008-48.4352-199.2192-80.8448-305.7664-73.8304-45.8752 6.7584-92.16 37.5296-103.936 84.4288z" fill="#FFFFFF" p-id="5313"/>
    <path d="M114.2784 32.6656c29.2352-16.0256 62.72-22.6816 95.8464-22.3744C413.184 10.24 616.2432 10.24 819.3024 10.2912c46.4896-0.5632 93.8496 14.0288 129.4848 44.4416 45.568 37.4272 71.5264 96.2048 70.3488 155.0336-0.3584 164.096 0.8704 328.1408-0.4096 492.1856-95.0784-29.1328-189.952-58.88-284.416-89.856-15.7696-5.0688-31.9488-9.216-46.7968-16.64 38.4-64.512 66.0992-135.168 83.8656-208.0256-68.8128-0.0512-137.6256-0.1536-206.3872 0.0512-0.1536-23.04 0.1536-46.1312-0.4096-69.1712 83.5072-1.5872 167.0144 0.5632 250.5216-1.0752-0.3584-14.3872 3.6352-30.0544-4.096-43.2128-82.4832 1.6896-165.0176-0.0512-247.5008 0.9216-3.4304-39.0656-1.2288-78.4384-1.024-117.6064-30.464-1.6896-60.9792-0.5632-91.4432-0.8192-10.6496-1.1264-23.3472 6.4512-23.04 18.0736-0.6656 32.9728-0.4608 65.9968 0.1536 98.9696-78.2336 2.3552-156.7232 0.9728-235.008 0.6656-1.5872 14.1824-1.5872 28.4672-1.5872 42.752 79.3088 2.0992 158.6688-0.1536 238.0288 1.1264-0.4608 23.1936 0.1024 46.3872-0.5632 69.5808-64.768-0.4608-129.536-0.5632-194.2528 0.0512-0.1536 10.8544-0.7168 21.8112 0.2048 32.6656 2.7648 9.728 14.4384 5.5296 21.6064 6.5024 123.0336-0.6656 246.0672 0.256 369.0496-0.4608-12.6464 45.8752-29.0816 91.2896-52.736 132.7616l-3.7376 1.9968c-72.192-23.296-144.2816-50.688-220.5184-56.832-35.8912-1.6384-71.9872-7.9872-107.776-1.9456-46.5408 6.3488-94.5664 20.8896-127.8976 55.7568-39.5264 41.3184-56.6784 102.7072-45.2608 158.6176 11.8784 55.3472 56.8832 98.0992 107.4688 119.9616 80.128 30.5152 171.3152 26.6752 250.5216-4.9664 72.4992-28.9792 129.3824-85.5552 178.9952-144.128 129.6896 58.4704 259.7888 116.2752 390.912 171.4688-8.704 59.6992-50.1248 113.2544-104.2944 139.264-41.1136 20.4288-88.0128 22.016-132.9664 20.736-186.112-0.2048-372.2752 0.1536-558.3872-0.1024-60.7232 3.9424-123.8016-20.48-162.8672-67.7376-30.3104-34.9184-46.9504-80.896-46.7968-127.0784-0.0512-206.592-0.1024-413.184 0.0512-619.7248-0.5632-70.4512 40.4992-140.3904 103.936-171.8272z" fill="#009FE8" p-id="5314"/>
    <path d="M126.3104 655.36c11.776-46.8992 58.0608-77.6704 103.936-84.4288 106.5472-7.0144 211.8656 25.3952 305.7664 73.8304-40.96 54.784-94.1568 101.4272-157.44 128.5632-55.8592 22.784-120.32 23.808-176.8448 2.7648-47.6672-17.7152-85.1968-68.6592-75.4176-120.7296z" fill="#009FE8" p-id="5315"/>
</svg>
