<svg t="1586343680144" class="icon" viewBox="0 0 1024 1024" version="1.1" xmlns="http://www.w3.org/2000/svg" p-id="8969" width="147" height="147"><path d="M699.34194967 685.73384338m-136.02837881 0a136.02837881 136.02837881 0 1 0 272.05675764 0 136.02837881 136.02837881 0 1 0-272.05675764 0Z" fill="#5FCEFF" p-id="8970"></path><path d="M715.67378479 280.30921631c12.90741806 9.24592621 15.88402634 27.21094409 6.63810095 40.11836132l-15.35719346 21.41577741c-9.21958457 12.90741806-27.18460245 15.85768469-40.0920205 6.61175848l-157.70757184-112.97941781c-12.90741806-9.24592621-15.88402634-27.18460245-6.63810094-40.09202051l15.35719344-21.41577658c9.24592621-12.90741806 27.18460245-15.88402634 40.09201969-6.63810095l157.70757266 112.97941864z" fill="#FFB578" p-id="8971"></path><path d="M342.78111807 546.88690616c87.19092416 0 157.86562253 70.70104001 157.86562253 157.89196417 0 87.21726581-70.67469754 157.89196417-157.86562252 157.89196417-87.21726581 0-157.89196417-70.67469754-157.89196418-157.89196417 0-87.19092416 70.67469754-157.89196417 157.89196417-157.89196417z" fill="#FF4893" p-id="8972"></path><path d="M342.78111807 881.11000281c-97.22973477 0-176.33113248-79.10139771-176.33113247-176.33113248 0-97.22710053 79.10139771-176.32849823 176.33113247-176.32849823 97.21392929 0 176.30742508 79.10139771 176.30742508 176.32849823 0 97.22973477-79.09349497 176.33113248-176.30742508 176.33113248z m0-315.78392835c-76.89396561 0-139.45279587 62.55882944-139.45279587 139.45016163 0 76.89396561 62.55882944 139.45279587 139.45279587 139.45279586 76.88079519 0 139.42645422-62.55882944 139.42645423-139.45279586 0-76.89133218-62.54565903-139.45016162-139.42645423-139.45016163zM699.34194968 840.2013905c-85.17578714 0-154.47018137-69.29439423-154.47018055-154.46754712s69.29439423-154.46754712 154.47018055-154.46754629c85.17315289 0 154.46754712 69.29439423 154.46754711 154.46754629s-69.29439423 154.46754712-154.46754711 154.46754712z m0-272.05412338c-64.84001797 0-117.59184475 52.74919253-117.59184394 117.58921051s52.74919253 117.58921052 117.59184394 117.58921051c64.83738372 0 117.58921052-52.74919253 117.58921051-117.58921051s-52.74919253-117.58921052-117.58921051-117.58921051z" fill="#4F46A3" p-id="8973"></path><path d="M342.78111807 563.58752429a18.4391683 18.4391683 0 0 1-18.4391683-18.43916831c0-147.62925 120.09430343-267.73672385 267.71038221-267.73672384a18.4391683 18.4391683 0 1 1-1e-8 36.87833661c-127.28031042 0-230.83204559 103.56227134-230.83204559 230.85838723a18.4391683 18.4391683 0 0 1-18.43916831 18.43916831z" fill="#4F46A3" p-id="8974"></path><path d="M778.190128 580.276257a22.483819 22.483819 0 0 1-5.77041-0.757666c-143.138135-38.084705-228.636109-185.532266-190.580175-328.683188a22.378321 22.378321 0 0 1 43.254098 11.496063c-31.713278 119.30842 39.539296 242.194174 158.838125 273.936225a22.378321 22.378321 0 0 1-5.741638 44.008566z" fill="#4F46A3" p-id="8975"></path><path d="M683.5975343 372.28115344c-9.90183307 0-19.40063956-3.05563321-27.47172629-8.83499606l-157.70757266-112.97941781c-21.14972588-15.14909372-26.03347119-44.67547073-10.88964597-65.81729472l15.36246113-21.42367932a47.31490613 47.31490613 0 0 1 38.37717773-19.70883654 46.86182886 46.86182886 0 0 1 27.44011697 8.82445908l157.70757184 112.98205288c21.15499438 15.15699646 26.04137393 44.69390964 10.88964596 65.84626977l-15.36246111 21.42367932c-8.80075168 12.31473065-23.1437906 19.6877634-38.3455676 19.6877634z m-142.33194031-191.88852209a10.22056787 10.22056787 0 0 0-8.40035769 4.31476528l-15.3598277 21.42104509a10.3048613 10.3048613 0 0 0 2.38918936 14.35621013l157.70757266 112.98205206a10.26007993 10.26007993 0 0 0 5.99536368 1.93611292 10.14154294 10.14154294 0 0 0 8.35294373-4.27525323l15.37826578-21.44475247a10.32066596 10.32066596 0 0 0-2.39182362-14.38255097L547.22934836 182.32084152a10.18368923 10.18368923 0 0 0-5.96375437-1.92821017zM246.18621783 714.60431272a18.4391683 18.4391683 0 0 1-18.4391683-18.43916831c0-58.66553128 47.7284697-106.39400098 106.39400098-106.39400098a18.4391683 18.4391683 0 1 1 0 36.87833661c-38.33239636 0-69.51566438 31.18326801-69.51566438 69.51566437a18.4391683 18.4391683 0 0 1-18.4391683 18.43916831z" fill="#4F46A3" p-id="8976"></path></svg>